<svg data-v-423bf9ae="" xmlns="http://www.w3.org/2000/svg" viewBox="0 0 482.93369667199755 60" class="font"><!----><!----><defs data-v-423bf9ae=""><linearGradient data-v-423bf9ae="" gradientTransform="rotate(25)" id="ce79d114-23e7-4254-8e27-20f9da511dc7" x1="0%" y1="0%" x2="100%" y2="0%"><stop data-v-423bf9ae="" offset="0%" style="stop-color: rgb(105, 63, 36); stop-opacity: 1;"></stop><stop data-v-423bf9ae="" offset="100%" style="stop-color: rgb(156, 146, 137); stop-opacity: 1;"></stop></linearGradient></defs><g data-v-423bf9ae="" id="16b64e82-bb17-4771-82c8-a0b60779f9b6" fill="url(#ce79d114-23e7-4254-8e27-20f9da511dc7)" transform="matrix(4.02982068949968,0,0,4.02982068949968,-0.000005684631588565026,0.04029843792135068)"><path d="M2.84 7.53L2.84 7.53L2.84 7.53Q2.83 7.57 2.91 7.62L2.91 7.62L2.91 7.62Q2.98 7.64 3.16 7.67L3.16 7.67L3.16 7.67Q3.33 7.70 3.70 7.70L3.70 7.70L3.70 7.70Q4.59 7.70 5.12 7.35L5.12 7.35L5.12 7.35Q5.64 7 5.92 6.47L5.92 6.47L5.92 6.47Q6.20 5.94 6.29 5.29L6.29 5.29L6.29 5.29Q6.37 4.63 6.37 4.05L6.37 4.05L6.37 4.05Q6.37 3.07 6.13 2.35L6.13 2.35L6.13 2.35Q5.89 1.64 5.52 1.18L5.52 1.18L5.52 1.18Q5.15 0.73 4.72 0.51L4.72 0.51L4.72 0.51Q4.28 0.29 3.91 0.29L3.91 0.29L3.91 0.29Q3.57 0.29 3.39 0.35L3.39 0.35L3.39 0.35Q3.21 0.41 3.11 0.48L3.11 0.48L3.11 0.48Q3.00 0.55 2.98 0.64L2.98 0.64L2.98 0.64Q2.93 1.47 2.90 2.37L2.90 2.37L2.90 2.37Q2.87 3.26 2.86 4.15L2.86 4.15L2.86 4.15Q2.84 5.04 2.84 5.90L2.84 5.90L2.84 5.90Q2.84 6.76 2.84 7.53ZM1.48 6.57L1.48 6.57L1.48 6.57Q1.48 5.95 1.46 5.26L1.46 5.26L1.46 5.26Q1.43 4.56 1.39 3.87L1.39 3.87L1.39 3.87Q1.34 3.18 1.29 2.53L1.29 2.53L1.29 2.53Q1.23 1.89 1.16 1.40L1.16 1.40L1.16 1.40Q1.09 0.91 1.02 0.61L1.02 0.61L1.02 0.61Q0.95 0.31 0.90 0.29L0.90 0.29L0.90 0.29Q0.76 0.27 0.61 0.24L0.61 0.24L0.61 0.24Q0.46 0.22 0.32 0.20L0.32 0.20L0.32 0.20Q0.17 0.17 0 0.14L0 0.14L0 0.01L0 0.01Q0.25 0.06 0.55 0.08L0.55 0.08L0.55 0.08Q0.80 0.11 1.13 0.13L1.13 0.13L1.13 0.13Q1.46 0.14 1.82 0.14L1.82 0.14L1.82 0.14Q2.17 0.14 2.46 0.12L2.46 0.12L2.46 0.12Q2.74 0.10 3.05 0.08L3.05 0.08L3.05 0.08Q3.36 0.06 3.75 0.04L3.75 0.04L3.75 0.04Q4.13 0.01 4.68 0.01L4.68 0.01L4.68 0.01Q5.53 0.01 6.22 0.34L6.22 0.34L6.22 0.34Q6.90 0.67 7.38 1.20L7.38 1.20L7.38 1.20Q7.87 1.72 8.12 2.36L8.12 2.36L8.12 2.36Q8.37 3.00 8.37 3.63L8.37 3.63L8.37 3.63Q8.37 4.21 8.23 4.70L8.23 4.70L8.23 4.70Q8.09 5.18 7.87 5.56L7.87 5.56L7.87 5.56Q7.64 5.95 7.35 6.25L7.35 6.25L7.35 6.25Q7.06 6.55 6.76 6.78L6.76 6.78L6.76 6.78Q6.05 7.31 5.15 7.57L5.15 7.57L5.15 7.57Q5.89 7.57 6.45 8.04L6.45 8.04L6.45 8.04Q7 8.50 7.43 9.19L7.43 9.19L7.43 9.19Q7.87 9.88 8.24 10.70L8.24 10.70L8.24 10.70Q8.61 11.52 8.98 12.24L8.98 12.24L8.98 12.24Q9.35 12.95 9.78 13.45L9.78 13.45L9.78 13.45Q10.21 13.94 10.78 14L10.78 14L10.78 14Q9.87 14 9.23 13.87L9.23 13.87L9.23 13.87Q8.60 13.73 8.15 13.49L8.15 13.49L8.15 13.49Q7.71 13.24 7.41 12.90L7.41 12.90L7.41 12.90Q7.11 12.56 6.87 12.14L6.87 12.14L6.87 12.14Q6.64 11.73 6.41 11.26L6.41 11.26L6.41 11.26Q6.19 10.79 5.88 10.29L5.88 10.29L5.88 10.29Q5.39 9.48 5.11 8.99L5.11 8.99L5.11 8.99Q4.83 8.50 4.56 8.25L4.56 8.25L4.56 8.25Q4.28 7.99 3.91 7.92L3.91 7.92L3.91 7.92Q3.53 7.84 2.84 7.84L2.84 7.84L2.84 7.84Q2.84 8.72 2.91 9.76L2.91 9.76L2.91 9.76Q2.98 10.79 3.07 11.68L3.07 11.68L3.07 11.68Q3.16 12.71 3.30 13.73L3.30 13.73L4.26 13.86L4.26 14L3.70 13.93L3.70 13.93Q3.44 13.90 3.10 13.88L3.10 13.88L3.10 13.88Q2.76 13.86 2.38 13.86L2.38 13.86L2.38 13.86Q1.88 13.86 1.50 13.88L1.50 13.88L1.50 13.88Q1.12 13.90 0.87 13.93L0.87 13.93L0.87 13.93Q0.57 13.97 0.38 14L0.38 14L0.38 13.90L0.38 13.90Q0.50 13.87 0.64 13.85L0.64 13.85L0.64 13.85Q0.76 13.82 0.90 13.79L0.90 13.79L0.90 13.79Q1.04 13.76 1.19 13.73L1.19 13.73L1.19 13.73Q1.41 13.71 1.45 11.97L1.45 11.97L1.45 11.97Q1.48 10.23 1.48 6.57ZM15.47 12.49L15.47 12.49L15.47 12.49Q15.88 12.49 16.23 12.38L16.23 12.38L16.23 12.38Q16.59 12.28 16.86 12.14L16.86 12.14L16.86 12.14Q17.16 11.98 17.43 11.79L17.43 11.79L17.43 11.79Q17.05 12.42 16.52 12.91L16.52 12.91L16.52 12.91Q16.07 13.33 15.39 13.67L15.39 13.67L15.39 13.67Q14.71 14.01 13.82 14.01L13.82 14.01L13.82 14.01Q13.17 14.01 12.59 13.79L12.59 13.79L12.59 13.79Q12.00 13.57 11.54 13.15L11.54 13.15L11.54 13.15Q11.09 12.73 10.82 12.12L10.82 12.12L10.82 12.12Q10.56 11.51 10.56 10.75L10.56 10.75L10.56 10.75Q10.56 10.07 10.77 9.54L10.77 9.54L10.77 9.54Q10.99 9.02 11.34 8.62L11.34 8.62L11.34 8.62Q11.69 8.23 12.12 7.97L12.12 7.97L12.12 7.97Q12.56 7.71 12.98 7.55L12.98 7.55L12.98 7.55Q14.32 7 14.81 7L14.81 7L14.81 7Q15.33 7 15.71 7.17L15.71 7.17L15.71 7.17Q16.10 7.35 16.38 7.56L16.38 7.56L16.38 7.56Q16.69 7.81 16.93 8.12L16.93 8.12L12.31 9.98L12.31 9.98Q12.40 10.57 12.59 11.03L12.59 11.03L12.59 11.03Q12.77 11.49 13.12 11.82L13.12 11.82L13.12 11.82Q13.47 12.14 14.03 12.31L14.03 12.31L14.03 12.31Q14.59 12.49 15.47 12.49ZM13.20 7.81L13.20 7.81L13.20 7.81Q13.01 7.81 12.82 7.92L12.82 7.92L12.82 7.92Q12.64 8.02 12.50 8.19L12.50 8.19L12.50 8.19Q12.35 8.36 12.27 8.57L12.27 8.57L12.27 8.57Q12.19 8.78 12.21 8.99L12.21 8.99L12.21 8.99Q12.21 9.21 12.22 9.42L12.22 9.42L12.22 9.42Q12.22 9.63 12.26 9.84L12.26 9.84L14.62 8.76L14.62 8.76Q14.48 8.50 14.27 8.29L14.27 8.29L14.27 8.29Q14.08 8.11 13.82 7.96L13.82 7.96L13.82 7.96Q13.55 7.81 13.20 7.81ZM22.64 7L22.64 7L22.64 7Q22.81 7.20 23.10 7.39L23.10 7.39L23.10 7.39Q23.39 7.59 23.72 7.75L23.72 7.75L23.72 7.75Q24.04 7.91 24.35 8.02L24.35 8.02L24.35 8.02Q24.67 8.12 24.91 8.12L24.91 8.12L24.91 8.12Q24.70 8.26 24.44 8.41L24.44 8.41L24.44 8.41Q24.18 8.55 23.95 8.69L23.95 8.69L23.95 8.69Q23.72 8.82 23.54 8.92L23.54 8.92L23.54 8.92Q23.37 9.02 23.30 9.07L23.30 9.07L23.30 9.07Q23.10 9.10 22.79 9.03L22.79 9.03L22.79 9.03Q22.48 8.96 22.16 8.83L22.16 8.83L22.16 8.83Q21.83 8.71 21.53 8.57L21.53 8.57L21.53 8.57Q21.24 8.43 21.08 8.32L21.08 8.32L21.08 8.32Q20.96 8.40 20.83 8.55L20.83 8.55L20.83 8.55Q20.69 8.71 20.58 8.92L20.58 8.92L20.58 8.92Q20.47 9.13 20.40 9.38L20.40 9.38L20.40 9.38Q20.33 9.63 20.33 9.91L20.33 9.91L20.33 9.91Q20.33 10.54 20.64 11.02L20.64 11.02L20.64 11.02Q20.96 11.49 21.41 11.81L21.41 11.81L21.41 11.81Q21.87 12.12 22.38 12.29L22.38 12.29L22.38 12.29Q22.89 12.45 23.30 12.45L23.30 12.45L23.30 12.45Q23.84 12.45 24.28 12.34L24.28 12.34L24.28 12.34Q24.71 12.24 25.02 12.10L25.02 12.10L25.02 12.10Q25.38 11.94 25.65 11.75L25.65 11.75L25.65 11.75Q25.35 12.01 24.97 12.40L24.97 12.40L24.97 12.40Q24.58 12.78 24.13 13.14L24.13 13.14L24.13 13.14Q23.67 13.50 23.14 13.75L23.14 13.75L23.14 13.75Q22.60 14 21.98 14L21.98 14L21.98 14Q21.28 14 20.70 13.74L20.70 13.74L20.70 13.74Q20.12 13.48 19.71 13.05L19.71 13.05L19.71 13.05Q19.29 12.63 19.06 12.08L19.06 12.08L19.06 12.08Q18.83 11.54 18.83 10.95L18.83 10.95L18.83 10.95Q18.83 10.42 19.06 9.97L19.06 9.97L19.06 9.97Q19.29 9.52 19.65 9.14L19.65 9.14L19.65 9.14Q20.01 8.76 20.45 8.45L20.45 8.45L20.45 8.45Q20.89 8.13 21.32 7.87L21.32 7.87L21.32 7.87Q21.74 7.60 22.09 7.39L22.09 7.39L22.09 7.39Q22.44 7.18 22.64 7ZM28.27 9.66L28.27 9.66L28.27 9.66Q28.27 10.08 28.43 10.59L28.43 10.59L28.43 10.59Q28.59 11.10 28.97 11.54L28.97 11.54L28.97 11.54Q29.34 11.98 29.95 12.29L29.95 12.29L29.95 12.29Q30.56 12.59 31.44 12.59L31.44 12.59L31.44 12.59Q31.91 12.59 32.17 12.46L32.17 12.46L32.17 12.46Q32.44 12.33 32.56 12.14L32.56 12.14L32.56 12.14Q32.69 11.96 32.73 11.75L32.73 11.75L32.73 11.75Q32.76 11.54 32.76 11.35L32.76 11.35L32.76 11.35Q32.76 10.75 32.53 10.16L32.53 10.16L32.53 10.16Q32.30 9.58 31.89 9.11L31.89 9.11L31.89 9.11Q31.49 8.65 30.93 8.37L30.93 8.37L30.93 8.37Q30.38 8.09 29.74 8.09L29.74 8.09L29.74 8.09Q29.32 8.09 29.04 8.25L29.04 8.25L29.04 8.25Q28.76 8.41 28.58 8.66L28.58 8.66L28.58 8.66Q28.41 8.90 28.34 9.18L28.34 9.18L28.34 9.18Q28.27 9.45 28.27 9.66ZM31.35 7L31.35 7L31.35 7Q31.77 7 32.25 7.18L32.25 7.18L32.25 7.18Q32.73 7.36 33.15 7.73L33.15 7.73L33.15 7.73Q33.56 8.09 33.82 8.66L33.82 8.66L33.82 8.66Q34.09 9.23 34.09 9.98L34.09 9.98L34.09 9.98Q34.09 10.42 33.89 10.88L33.89 10.88L33.89 10.88Q33.68 11.34 33.36 11.79L33.36 11.79L33.36 11.79Q33.03 12.24 32.60 12.63L32.60 12.63L32.60 12.63Q32.17 13.03 31.72 13.34L31.72 13.34L31.72 13.34Q31.26 13.64 30.81 13.82L30.81 13.82L30.81 13.82Q30.35 14 29.97 14L29.97 14L29.97 14Q29.40 14 28.88 13.76L28.88 13.76L28.88 13.76Q28.35 13.52 27.94 13.12L27.94 13.12L27.94 13.12Q27.54 12.71 27.29 12.19L27.29 12.19L27.29 12.19Q27.05 11.66 27.05 11.07L27.05 11.07L27.05 11.07Q27.05 10.28 27.48 9.54L27.48 9.54L27.48 9.54Q27.92 8.81 28.56 8.24L28.56 8.24L28.56 8.24Q29.20 7.67 29.95 7.34L29.95 7.34L29.95 7.34Q30.70 7 31.35 7ZM39.73 7.06L39.73 7.06L39.73 7.06Q39.94 7.06 40.18 7.07L40.18 7.07L40.18 7.07Q40.42 7.08 40.57 7.15L40.57 7.15L40.57 7.15Q40.42 7.36 40.28 7.69L40.28 7.69L40.28 7.69Q40.14 8.01 40.03 8.30L40.03 8.30L40.03 8.30Q39.89 8.67 39.77 9.03L39.77 9.03L39.77 9.03Q39.68 8.97 39.52 8.92L39.52 8.92L39.52 8.92Q39.40 8.88 39.21 8.83L39.21 8.83L39.21 8.83Q39.02 8.79 38.75 8.79L38.75 8.79L38.75 8.79Q38.33 8.79 38.06 9.02L38.06 9.02L38.06 9.02Q37.79 9.25 37.62 9.63L37.62 9.63L37.62 9.63Q37.45 10.00 37.36 10.44L37.36 10.44L37.36 10.44Q37.27 10.89 37.23 11.31L37.23 11.31L37.23 11.31Q37.23 12.12 37.25 12.57L37.25 12.57L37.25 12.57Q37.27 13.02 37.27 13.30L37.27 13.30L37.27 13.30Q37.09 13.34 36.87 13.42L36.87 13.42L36.87 13.42Q36.65 13.50 36.43 13.60L36.43 13.60L36.43 13.60Q36.20 13.71 35.99 13.81L35.99 13.81L35.99 13.81Q35.77 13.92 35.60 14.01L35.60 14.01L35.60 14.01Q35.67 13.38 35.72 12.71L35.72 12.71L35.72 12.71Q35.77 12.04 35.79 11.40L35.79 11.40L35.79 11.40Q35.81 10.75 35.79 10.17L35.79 10.17L35.79 10.17Q35.77 9.59 35.71 9.15L35.71 9.15L35.71 9.15Q35.64 8.71 35.55 8.43L35.55 8.43L35.55 8.43Q35.45 8.16 35.31 8.13L35.31 8.13L35.31 8.13Q35.24 8.12 35.15 8.12L35.15 8.12L35.15 8.12Q35.07 8.12 34.99 8.12L34.99 8.12L34.99 8.12Q34.89 8.12 34.79 8.13L34.79 8.13L34.79 8.13Q35.17 8.01 35.55 7.84L35.55 7.84L35.55 7.84Q35.87 7.69 36.26 7.48L36.26 7.48L36.26 7.48Q36.65 7.28 37.02 7.01L37.02 7.01L37.02 7.01Q37.06 7.20 37.09 7.51L37.09 7.51L37.09 7.51Q37.11 7.83 37.14 8.22L37.14 8.22L37.14 8.22Q37.17 8.62 37.18 9.07L37.18 9.07L37.18 9.07Q37.20 9.52 37.23 9.95L37.23 9.95L37.23 9.95Q37.44 9.48 37.72 8.97L37.72 8.97L37.72 8.97Q38.00 8.46 38.32 8.03L38.32 8.03L38.32 8.03Q38.64 7.60 39.00 7.33L39.00 7.33L39.00 7.33Q39.37 7.06 39.73 7.06ZM39.07 3.33L39.07 3.33L39.07 3.33Q39.07 2.83 39.47 2.33L39.47 2.33L39.47 2.33Q39.87 1.83 40.50 1.39L40.50 1.39L40.50 1.39Q41.12 0.95 41.87 0.60L41.87 0.60L41.87 0.60Q42.63 0.25 43.33 0.04L43.33 0.04L43.33 0.04Q42.80 0.21 42.31 0.48L42.31 0.48L42.31 0.48Q41.82 0.74 41.44 1.06L41.44 1.06L41.44 1.06Q41.06 1.37 40.83 1.71L40.83 1.71L40.83 1.71Q40.60 2.06 40.60 2.38L40.60 2.38L40.60 2.38Q40.60 2.76 40.85 3.18L40.85 3.18L40.85 3.18Q41.09 3.60 41.48 4.03L41.48 4.03L41.48 4.03Q41.86 4.45 42.34 4.86L42.34 4.86L42.34 4.86Q42.83 5.26 43.31 5.61L43.31 5.61L43.31 5.61Q43.79 5.95 44.22 6.22L44.22 6.22L44.22 6.22Q44.65 6.50 44.94 6.64L44.94 6.64L44.94 6.64Q45.22 6.78 45.58 6.92L45.58 6.92L45.58 6.92Q45.95 7.07 46.33 7.26L46.33 7.26L46.33 7.26Q46.72 7.45 47.10 7.69L47.10 7.69L47.10 7.69Q47.47 7.94 47.77 8.27L47.77 8.27L47.77 8.27Q48.06 8.61 48.24 9.04L48.24 9.04L48.24 9.04Q48.43 9.48 48.43 10.05L48.43 10.05L48.43 10.05Q48.43 10.51 48.29 10.91L48.29 10.91L48.29 10.91Q48.15 11.30 47.91 11.63L47.91 11.63L47.91 11.63Q47.67 11.97 47.37 12.26L47.37 12.26L47.37 12.26Q47.07 12.54 46.73 12.81L46.73 12.81L46.73 12.81Q46.06 13.34 45.44 13.68L45.44 13.68L45.44 13.68Q44.83 14.01 44.17 14.01L44.17 14.01L44.17 14.01Q43.62 14.01 43.16 13.79L43.16 13.79L43.16 13.79Q42.70 13.57 42.38 13.21L42.38 13.21L42.38 13.21Q42.06 12.85 41.87 12.41L41.87 12.41L41.87 12.41Q41.69 11.97 41.69 11.54L41.69 11.54L41.69 11.54Q41.69 10.92 41.83 10.51L41.83 10.51L41.83 10.51Q41.97 10.09 42.20 9.81L42.20 9.81L42.20 9.81Q42.43 9.53 42.73 9.34L42.73 9.34L42.73 9.34Q43.02 9.14 43.33 8.96L43.33 8.96L43.33 8.96Q43.61 8.74 43.90 8.57L43.90 8.57L43.90 8.57Q44.18 8.40 44.52 8.29L44.52 8.29L44.52 8.29Q44.02 8.04 43.54 7.78L43.54 7.78L43.54 7.78Q43.06 7.52 42.70 7.24L42.70 7.24L42.70 7.24Q42.43 7.06 42.06 6.80L42.06 6.80L42.06 6.80Q41.69 6.55 41.29 6.25L41.29 6.25L41.29 6.25Q40.89 5.95 40.50 5.60L40.50 5.60L40.50 5.60Q40.10 5.25 39.78 4.88L39.78 4.88L39.78 4.88Q39.47 4.51 39.27 4.12L39.27 4.12L39.27 4.12Q39.07 3.72 39.07 3.33ZM46.86 10.91L46.86 10.91L46.86 10.91Q46.86 10.47 46.68 10.12L46.68 10.12L46.68 10.12Q46.51 9.76 46.21 9.46L46.21 9.46L46.21 9.46Q45.92 9.16 45.53 8.90L45.53 8.90L45.53 8.90Q45.14 8.65 44.70 8.43L44.70 8.43L44.70 8.43Q44.45 8.47 44.18 8.62L44.18 8.62L44.18 8.62Q43.90 8.76 43.69 9.00L43.69 9.00L43.69 9.00Q43.47 9.24 43.32 9.55L43.32 9.55L43.32 9.55Q43.18 9.87 43.18 10.25L43.18 10.25L43.18 10.25Q43.18 10.70 43.34 11.12L43.34 11.12L43.34 11.12Q43.51 11.55 43.83 11.89L43.83 11.89L43.83 11.89Q44.16 12.22 44.63 12.43L44.63 12.43L44.63 12.43Q45.09 12.63 45.71 12.63L45.71 12.63L45.71 12.63Q46.19 12.63 46.43 12.51L46.43 12.51L46.43 12.51Q46.68 12.39 46.77 12.17L46.77 12.17L46.77 12.17Q46.86 11.94 46.86 11.62L46.86 11.62L46.86 11.62Q46.86 11.30 46.86 10.91ZM54.74 12.49L54.74 12.49L54.74 12.49Q55.15 12.49 55.50 12.38L55.50 12.38L55.50 12.38Q55.86 12.28 56.13 12.14L56.13 12.14L56.13 12.14Q56.43 11.98 56.70 11.79L56.70 11.79L56.70 11.79Q56.32 12.42 55.79 12.91L55.79 12.91L55.79 12.91Q55.34 13.33 54.66 13.67L54.66 13.67L54.66 13.67Q53.98 14.01 53.09 14.01L53.09 14.01L53.09 14.01Q52.44 14.01 51.86 13.79L51.86 13.79L51.86 13.79Q51.27 13.57 50.81 13.15L50.81 13.15L50.81 13.15Q50.36 12.73 50.09 12.12L50.09 12.12L50.09 12.12Q49.83 11.51 49.83 10.75L49.83 10.75L49.83 10.75Q49.83 10.07 50.04 9.54L50.04 9.54L50.04 9.54Q50.26 9.02 50.61 8.62L50.61 8.62L50.61 8.62Q50.96 8.23 51.39 7.97L51.39 7.97L51.39 7.97Q51.83 7.71 52.25 7.55L52.25 7.55L52.25 7.55Q53.59 7 54.08 7L54.08 7L54.08 7Q54.60 7 54.99 7.17L54.99 7.17L54.99 7.17Q55.37 7.35 55.65 7.56L55.65 7.56L55.65 7.56Q55.96 7.81 56.20 8.12L56.20 8.12L51.58 9.98L51.58 9.98Q51.67 10.57 51.86 11.03L51.86 11.03L51.86 11.03Q52.04 11.49 52.39 11.82L52.39 11.82L52.39 11.82Q52.74 12.14 53.30 12.31L53.30 12.31L53.30 12.31Q53.86 12.49 54.74 12.49ZM52.47 7.81L52.47 7.81L52.47 7.81Q52.28 7.81 52.09 7.92L52.09 7.92L52.09 7.92Q51.91 8.02 51.77 8.19L51.77 8.19L51.77 8.19Q51.62 8.36 51.54 8.57L51.54 8.57L51.54 8.57Q51.46 8.78 51.48 8.99L51.48 8.99L51.48 8.99Q51.48 9.21 51.49 9.42L51.49 9.42L51.49 9.42Q51.49 9.63 51.53 9.84L51.53 9.84L53.89 8.76L53.89 8.76Q53.75 8.50 53.54 8.29L53.54 8.29L53.54 8.29Q53.35 8.11 53.09 7.96L53.09 7.96L53.09 7.96Q52.82 7.81 52.47 7.81ZM62.34 7.06L62.34 7.06L62.34 7.06Q62.55 7.06 62.79 7.07L62.79 7.07L62.79 7.07Q63.03 7.08 63.18 7.15L63.18 7.15L63.18 7.15Q63.03 7.36 62.89 7.69L62.89 7.69L62.89 7.69Q62.75 8.01 62.64 8.30L62.64 8.30L62.64 8.30Q62.50 8.67 62.38 9.03L62.38 9.03L62.38 9.03Q62.29 8.97 62.13 8.92L62.13 8.92L62.13 8.92Q62.01 8.88 61.82 8.83L61.82 8.83L61.82 8.83Q61.63 8.79 61.36 8.79L61.36 8.79L61.36 8.79Q60.94 8.79 60.67 9.02L60.67 9.02L60.67 9.02Q60.40 9.25 60.23 9.63L60.23 9.63L60.23 9.63Q60.06 10.00 59.97 10.44L59.97 10.44L59.97 10.44Q59.88 10.89 59.84 11.31L59.84 11.31L59.84 11.31Q59.84 12.12 59.86 12.57L59.86 12.57L59.86 12.57Q59.88 13.02 59.88 13.30L59.88 13.30L59.88 13.30Q59.70 13.34 59.48 13.42L59.48 13.42L59.48 13.42Q59.26 13.50 59.04 13.60L59.04 13.60L59.04 13.60Q58.81 13.71 58.60 13.81L58.60 13.81L58.60 13.81Q58.38 13.92 58.21 14.01L58.21 14.01L58.21 14.01Q58.28 13.38 58.33 12.71L58.33 12.71L58.33 12.71Q58.38 12.04 58.40 11.40L58.40 11.40L58.40 11.40Q58.42 10.75 58.40 10.17L58.40 10.17L58.40 10.17Q58.38 9.59 58.32 9.15L58.32 9.15L58.32 9.15Q58.25 8.71 58.16 8.43L58.16 8.43L58.16 8.43Q58.06 8.16 57.92 8.13L57.92 8.13L57.92 8.13Q57.85 8.12 57.76 8.12L57.76 8.12L57.76 8.12Q57.68 8.12 57.60 8.12L57.60 8.12L57.60 8.12Q57.50 8.12 57.40 8.13L57.40 8.13L57.40 8.13Q57.78 8.01 58.16 7.84L58.16 7.84L58.16 7.84Q58.48 7.69 58.87 7.48L58.87 7.48L58.87 7.48Q59.26 7.28 59.63 7.01L59.63 7.01L59.63 7.01Q59.67 7.20 59.70 7.51L59.70 7.51L59.70 7.51Q59.72 7.83 59.75 8.22L59.75 8.22L59.75 8.22Q59.78 8.62 59.79 9.07L59.79 9.07L59.79 9.07Q59.81 9.52 59.84 9.95L59.84 9.95L59.84 9.95Q60.05 9.48 60.33 8.97L60.33 8.97L60.33 8.97Q60.61 8.46 60.93 8.03L60.93 8.03L60.93 8.03Q61.25 7.60 61.61 7.33L61.61 7.33L61.61 7.33Q61.98 7.06 62.34 7.06ZM78.99 9.65L78.99 9.65L78.99 9.65Q79.55 10.61 80.09 11.54L80.09 11.54L80.09 11.54Q80.64 12.46 81.17 13.17L81.17 13.17L81.17 13.17Q81.69 13.89 82.20 14.33L82.20 14.33L82.20 14.33Q82.71 14.77 83.20 14.77L83.20 14.77L83.16 14.87L83.16 14.87Q83.03 14.90 82.83 14.83L82.83 14.83L82.83 14.83Q82.63 14.76 82.40 14.63L82.40 14.63L82.40 14.63Q82.18 14.50 81.95 14.35L81.95 14.35L81.95 14.35Q81.72 14.20 81.54 14.08L81.54 14.08L81.54 14.08Q81.34 13.93 81.04 13.80L81.04 13.80L81.04 13.80Q80.74 13.66 80.40 13.52L80.40 13.52L80.40 13.52Q80.07 13.37 79.74 13.19L79.74 13.19L79.74 13.19Q79.42 13.01 79.18 12.77L79.18 12.77L79.18 12.77Q78.97 12.56 78.66 12.11L78.66 12.11L78.66 12.11Q78.34 11.66 77.97 11.09L77.97 11.09L77.97 11.09Q77.59 10.53 77.18 9.89L77.18 9.89L77.18 9.89Q76.78 9.25 76.40 8.64L76.40 8.64L76.40 8.64Q76.02 8.04 75.69 7.52L75.69 7.52L75.69 7.52Q75.36 7.01 75.14 6.69L75.14 6.69L75.14 6.69Q75.11 6.72 75.07 6.75L75.07 6.75L75.07 6.75Q75.03 6.79 74.96 6.85L74.96 6.85L74.96 7.24L74.96 7.24Q74.96 8.79 75.00 10.00L75.00 10.00L75.00 10.00Q75.04 11.21 75.10 12.05L75.10 12.05L75.10 12.05Q75.15 13.03 75.24 13.78L75.24 13.78L76.10 13.86L76.10 14L76.10 14Q75.88 13.97 75.59 13.93L75.59 13.93L75.59 13.93Q75.33 13.90 74.98 13.88L74.98 13.88L74.98 13.88Q74.63 13.86 74.19 13.86L74.19 13.86L74.19 13.86Q73.72 13.86 73.37 13.88L73.37 13.88L73.37 13.88Q73.01 13.90 72.77 13.93L72.77 13.93L72.77 13.93Q72.49 13.97 72.28 14L72.28 14L72.28 13.90L73.15 13.78L73.15 13.78Q73.28 12.82 73.39 11.63L73.39 11.63L73.39 11.63Q73.49 10.61 73.56 9.22L73.56 9.22L73.56 9.22Q73.64 7.83 73.64 6.13L73.64 6.13L73.64 6.13Q73.64 4.76 73.58 3.67L73.58 3.67L73.58 3.67Q73.53 2.58 73.46 1.82L73.46 1.82L73.46 1.82Q73.39 0.94 73.29 0.25L73.29 0.25L72.42 0.13L72.42-0.01L72.42-0.01Q72.66 0.03 72.94 0.06L72.94 0.06L72.94 0.06Q73.18 0.08 73.51 0.11L73.51 0.11L73.51 0.11Q73.84 0.13 74.23 0.13L74.23 0.13L74.23 0.13Q74.68 0.13 75.03 0.11L75.03 0.11L75.03 0.11Q75.38 0.08 75.64 0.06L75.64 0.06L75.64 0.06Q75.94 0.03 76.19-0.01L76.19-0.01L76.19 0.13L75.36 0.25L75.36 0.25Q75.28 1.08 75.21 2.06L75.21 2.06L75.21 2.06Q75.14 2.90 75.08 4.03L75.08 4.03L75.08 4.03Q75.03 5.15 75.01 6.43L75.01 6.43L75.01 6.43Q75.32 6.19 75.69 5.78L75.69 5.78L75.69 5.78Q76.06 5.36 76.46 4.85L76.46 4.85L76.46 4.85Q76.86 4.34 77.27 3.74L77.27 3.74L77.27 3.74Q77.67 3.15 78.04 2.54L78.04 2.54L78.04 2.54Q78.40 1.93 78.71 1.35L78.71 1.35L78.71 1.35Q79.02 0.77 79.23 0.27L79.23 0.27L78.67 0.13L78.67 0L78.67 0Q78.82 0.04 79.03 0.07L79.03 0.07L79.03 0.07Q79.21 0.10 79.49 0.11L79.49 0.11L79.49 0.11Q79.76 0.13 80.12 0.13L80.12 0.13L80.12 0.13Q80.57 0.13 80.89 0.11L80.89 0.11L80.89 0.11Q81.20 0.10 81.41 0.07L81.41 0.07L81.41 0.07Q81.66 0.04 81.83 0L81.83 0L81.83 0.13L81.14 0.27L81.14 0.27Q80.61 0.66 80.05 1.25L80.05 1.25L80.05 1.25Q79.49 1.83 78.90 2.53L78.90 2.53L78.90 2.53Q78.32 3.22 77.71 3.95L77.71 3.95L77.71 3.95Q77.11 4.68 76.50 5.35L76.50 5.35L76.50 5.35Q77.08 6.26 77.73 7.36L77.73 7.36L77.73 7.36Q78.37 8.47 78.99 9.65ZM89.45 9.52L89.45 9.52L89.45 9.52Q89.56 9.79 89.77 10.30L89.77 10.30L89.77 10.30Q89.98 10.82 90.21 11.35L90.21 11.35L90.21 11.35Q90.44 11.89 90.66 12.29L90.66 12.29L90.66 12.29Q90.89 12.70 91.04 12.73L91.04 12.73L91.04 12.73Q90.62 12.96 90.17 13.30L90.17 13.30L90.17 13.30Q89.71 13.64 89.38 14L89.38 14L89.38 14Q89.31 13.69 89.12 13.14L89.12 13.14L89.12 13.14Q88.94 12.59 88.63 11.93L88.63 11.93L88.63 11.93Q88.37 12.19 87.96 12.55L87.96 12.55L87.96 12.55Q87.56 12.91 87.09 13.23L87.09 13.23L87.09 13.23Q86.63 13.55 86.14 13.78L86.14 13.78L86.14 13.78Q85.64 14 85.19 14L85.19 14L85.19 14Q84.87 14 84.53 13.91L84.53 13.91L84.53 13.91Q84.18 13.82 83.90 13.64L83.90 13.64L83.90 13.64Q83.62 13.47 83.45 13.22L83.45 13.22L83.45 13.22Q83.27 12.96 83.27 12.64L83.27 12.64L83.27 12.64Q83.27 12.25 83.68 11.80L83.68 11.80L83.68 11.80Q84.08 11.35 84.69 10.91L84.69 10.91L84.69 10.91Q85.29 10.47 85.99 10.05L85.99 10.05L85.99 10.05Q86.69 9.63 87.28 9.27L87.28 9.27L87.28 9.27Q86.84 8.72 86.46 8.48L86.46 8.48L86.46 8.48Q86.07 8.23 85.61 8.23L85.61 8.23L85.61 8.23Q85.41 8.23 85.10 8.34L85.10 8.34L85.10 8.34Q84.78 8.46 84.49 8.60L84.49 8.60L84.49 8.60Q84.13 8.75 83.76 8.95L83.76 8.95L83.76 8.95Q84.55 8.41 85.27 7.98L85.27 7.98L85.27 7.98Q85.58 7.80 85.90 7.63L85.90 7.63L85.90 7.63Q86.23 7.46 86.53 7.32L86.53 7.32L86.53 7.32Q86.83 7.18 87.09 7.10L87.09 7.10L87.09 7.10Q87.35 7.01 87.53 7.01L87.53 7.01L87.53 7.01Q87.88 7.01 88.18 7.31L88.18 7.31L88.18 7.31Q88.48 7.62 88.73 8.03L88.73 8.03L88.73 8.03Q88.97 8.44 89.15 8.86L89.15 8.86L89.15 8.86Q89.32 9.28 89.45 9.52ZM86.70 12.64L86.70 12.64L86.70 12.64Q87.04 12.64 87.35 12.54L87.35 12.54L87.35 12.54Q87.65 12.45 87.89 12.26L87.89 12.26L87.89 12.26Q88.12 12.08 88.26 11.83L88.26 11.83L88.26 11.83Q88.40 11.58 88.40 11.28L88.40 11.28L88.40 11.28Q88.28 11.10 88.16 10.88L88.16 10.88L88.16 10.88Q88.03 10.67 87.92 10.47L87.92 10.47L87.92 10.47Q87.81 10.22 87.69 9.99L87.69 9.99L87.69 9.99Q87.57 9.76 87.44 9.60L87.44 9.60L87.44 9.60Q87.14 9.72 86.70 9.92L86.70 9.92L86.70 9.92Q86.25 10.12 85.85 10.39L85.85 10.39L85.85 10.39Q85.44 10.67 85.16 10.99L85.16 10.99L85.16 10.99Q84.87 11.31 84.87 11.66L84.87 11.66L84.87 11.66Q84.87 11.86 85.02 12.03L85.02 12.03L85.02 12.03Q85.16 12.21 85.41 12.34L85.41 12.34L85.41 12.34Q85.65 12.47 85.99 12.56L85.99 12.56L85.99 12.56Q86.32 12.64 86.70 12.64ZM96.68 7.06L96.68 7.06L96.68 7.06Q96.89 7.06 97.13 7.07L97.13 7.07L97.13 7.07Q97.37 7.08 97.52 7.15L97.52 7.15L97.52 7.15Q97.37 7.36 97.23 7.69L97.23 7.69L97.23 7.69Q97.09 8.01 96.98 8.30L96.98 8.30L96.98 8.30Q96.84 8.67 96.73 9.03L96.73 9.03L96.73 9.03Q96.63 8.97 96.47 8.92L96.47 8.92L96.47 8.92Q96.35 8.88 96.16 8.83L96.16 8.83L96.16 8.83Q95.97 8.79 95.70 8.79L95.70 8.79L95.70 8.79Q95.28 8.79 95.01 9.02L95.01 9.02L95.01 9.02Q94.74 9.25 94.57 9.63L94.57 9.63L94.57 9.63Q94.40 10.00 94.31 10.44L94.31 10.44L94.31 10.44Q94.22 10.89 94.18 11.31L94.18 11.31L94.18 11.31Q94.18 12.12 94.20 12.57L94.20 12.57L94.20 12.57Q94.22 13.02 94.22 13.30L94.22 13.30L94.22 13.30Q94.04 13.34 93.82 13.42L93.82 13.42L93.82 13.42Q93.60 13.50 93.38 13.60L93.38 13.60L93.38 13.60Q93.16 13.71 92.94 13.81L92.94 13.81L92.94 13.81Q92.72 13.92 92.55 14.01L92.55 14.01L92.55 14.01Q92.62 13.38 92.67 12.71L92.67 12.71L92.67 12.71Q92.72 12.04 92.74 11.40L92.74 11.40L92.74 11.40Q92.76 10.75 92.74 10.17L92.74 10.17L92.74 10.17Q92.72 9.59 92.66 9.15L92.66 9.15L92.66 9.15Q92.60 8.71 92.50 8.43L92.50 8.43L92.50 8.43Q92.40 8.16 92.26 8.13L92.26 8.13L92.26 8.13Q92.19 8.12 92.11 8.12L92.11 8.12L92.11 8.12Q92.02 8.12 91.94 8.12L91.94 8.12L91.94 8.12Q91.84 8.12 91.74 8.13L91.74 8.13L91.74 8.13Q92.12 8.01 92.50 7.84L92.50 7.84L92.50 7.84Q92.82 7.69 93.21 7.48L93.21 7.48L93.21 7.48Q93.60 7.28 93.97 7.01L93.97 7.01L93.97 7.01Q94.01 7.20 94.04 7.51L94.04 7.51L94.04 7.51Q94.07 7.83 94.09 8.22L94.09 8.22L94.09 8.22Q94.12 8.62 94.14 9.07L94.14 9.07L94.14 9.07Q94.15 9.52 94.18 9.95L94.18 9.95L94.18 9.95Q94.39 9.48 94.67 8.97L94.67 8.97L94.67 8.97Q94.95 8.46 95.27 8.03L95.27 8.03L95.27 8.03Q95.59 7.60 95.96 7.33L95.96 7.33L95.96 7.33Q96.32 7.06 96.68 7.06ZM104.40 9.52L104.40 9.52L104.40 9.52Q104.51 9.79 104.72 10.30L104.72 10.30L104.72 10.30Q104.93 10.82 105.16 11.35L105.16 11.35L105.16 11.35Q105.39 11.89 105.62 12.29L105.62 12.29L105.62 12.29Q105.84 12.70 105.99 12.73L105.99 12.73L105.99 12.73Q105.57 12.96 105.12 13.30L105.12 13.30L105.12 13.30Q104.66 13.64 104.33 14L104.33 14L104.33 14Q104.26 13.69 104.08 13.14L104.08 13.14L104.08 13.14Q103.89 12.59 103.59 11.93L103.59 11.93L103.59 11.93Q103.32 12.19 102.91 12.55L102.91 12.55L102.91 12.55Q102.51 12.91 102.05 13.23L102.05 13.23L102.05 13.23Q101.58 13.55 101.09 13.78L101.09 13.78L101.09 13.78Q100.59 14 100.14 14L100.14 14L100.14 14Q99.82 14 99.48 13.91L99.48 13.91L99.48 13.91Q99.13 13.82 98.85 13.64L98.85 13.64L98.85 13.64Q98.57 13.47 98.40 13.22L98.40 13.22L98.40 13.22Q98.22 12.96 98.22 12.64L98.22 12.64L98.22 12.64Q98.22 12.25 98.63 11.80L98.63 11.80L98.63 11.80Q99.04 11.35 99.64 10.91L99.64 10.91L99.64 10.91Q100.24 10.47 100.94 10.05L100.94 10.05L100.94 10.05Q101.64 9.63 102.23 9.27L102.23 9.27L102.23 9.27Q101.79 8.72 101.41 8.48L101.41 8.48L101.41 8.48Q101.02 8.23 100.56 8.23L100.56 8.23L100.56 8.23Q100.37 8.23 100.05 8.34L100.05 8.34L100.05 8.34Q99.74 8.46 99.44 8.60L99.44 8.60L99.44 8.60Q99.08 8.75 98.71 8.95L98.71 8.95L98.71 8.95Q99.50 8.41 100.23 7.98L100.23 7.98L100.23 7.98Q100.53 7.80 100.86 7.63L100.86 7.63L100.86 7.63Q101.18 7.46 101.48 7.32L101.48 7.32L101.48 7.32Q101.78 7.18 102.04 7.10L102.04 7.10L102.04 7.10Q102.30 7.01 102.48 7.01L102.48 7.01L102.48 7.01Q102.83 7.01 103.13 7.31L103.13 7.31L103.13 7.31Q103.43 7.62 103.68 8.03L103.68 8.03L103.68 8.03Q103.92 8.44 104.10 8.86L104.10 8.86L104.10 8.86Q104.27 9.28 104.40 9.52ZM101.65 12.64L101.65 12.64L101.65 12.64Q101.99 12.64 102.30 12.54L102.30 12.54L102.30 12.54Q102.61 12.45 102.84 12.26L102.84 12.26L102.84 12.26Q103.07 12.08 103.21 11.83L103.21 11.83L103.21 11.83Q103.35 11.58 103.35 11.28L103.35 11.28L103.35 11.28Q103.24 11.10 103.11 10.88L103.11 10.88L103.11 10.88Q102.98 10.67 102.87 10.47L102.87 10.47L102.87 10.47Q102.76 10.22 102.64 9.99L102.64 9.99L102.64 9.99Q102.52 9.76 102.40 9.60L102.40 9.60L102.40 9.60Q102.09 9.72 101.65 9.92L101.65 9.92L101.65 9.92Q101.21 10.12 100.80 10.39L100.80 10.39L100.80 10.39Q100.39 10.67 100.11 10.99L100.11 10.99L100.11 10.99Q99.82 11.31 99.82 11.66L99.82 11.66L99.82 11.66Q99.82 11.86 99.97 12.03L99.97 12.03L99.97 12.03Q100.11 12.21 100.36 12.34L100.36 12.34L100.36 12.34Q100.60 12.47 100.94 12.56L100.94 12.56L100.94 12.56Q101.28 12.64 101.65 12.64ZM107.90 5.73L107.90 5.73L107.90 5.73Q108.35 5.54 108.79 5.26L108.79 5.26L108.79 5.26Q109.24 4.98 109.75 4.66L109.75 4.66L109.75 4.66Q109.68 4.91 109.62 5.28L109.62 5.28L109.62 5.28Q109.56 5.64 109.52 6.01L109.52 6.01L109.52 6.01Q109.48 6.38 109.45 6.69L109.45 6.69L109.45 6.69Q109.42 7 109.42 7.14L109.42 7.14L109.42 7.14Q109.98 7.29 110.56 7.27L110.56 7.27L110.56 7.27Q111.15 7.24 111.51 7.24L111.51 7.24L111.51 7.24Q111.33 7.41 111.06 7.52L111.06 7.52L111.06 7.52Q110.78 7.64 110.49 7.74L110.49 7.74L110.49 7.74Q110.19 7.84 109.91 7.91L109.91 7.91L109.91 7.91Q109.62 7.98 109.41 8.04L109.41 8.04L109.41 8.04Q109.44 8.55 109.40 9.09L109.40 9.09L109.40 9.09Q109.37 9.62 109.37 10.12L109.37 10.12L109.37 10.12Q109.37 10.61 109.45 11.05L109.45 11.05L109.45 11.05Q109.54 11.49 109.80 11.83L109.80 11.83L109.80 11.83Q110.05 12.17 110.54 12.38L110.54 12.38L110.54 12.38Q111.02 12.60 111.83 12.64L111.83 12.64L111.83 12.64Q111.59 12.84 111.36 13.08L111.36 13.08L111.36 13.08Q111.12 13.31 110.87 13.52L110.87 13.52L110.87 13.52Q110.61 13.72 110.35 13.85L110.35 13.85L110.35 13.85Q110.08 13.99 109.80 13.99L109.80 13.99L109.80 13.99Q109.52 13.99 109.23 13.88L109.23 13.88L109.23 13.88Q108.95 13.78 108.72 13.56L108.72 13.56L108.72 13.56Q108.49 13.34 108.33 13.01L108.33 13.01L108.33 13.01Q108.16 12.68 108.15 12.24L108.15 12.24L108.15 12.24Q108.09 11.12 108.07 10.01L108.07 10.01L108.07 10.01Q108.04 8.90 108.04 8.01L108.04 8.01L108.04 8.01Q107.67 7.98 107.43 7.95L107.43 7.95L107.43 7.95Q107.18 7.91 107.02 7.88L107.02 7.88L107.02 7.88Q106.82 7.85 106.69 7.83L106.69 7.83L106.69 7.83Q106.89 7.74 107.11 7.64L107.11 7.64L107.11 7.64Q107.30 7.56 107.52 7.45L107.52 7.45L107.52 7.45Q107.74 7.34 107.95 7.18L107.95 7.18L107.95 7.18Q108.00 6.75 107.99 6.40L107.99 6.40L107.99 6.40Q107.98 6.05 107.90 5.73ZM117.88 12.49L117.88 12.49L117.88 12.49Q118.29 12.49 118.64 12.38L118.64 12.38L118.64 12.38Q119.00 12.28 119.27 12.14L119.27 12.14L119.27 12.14Q119.57 11.98 119.84 11.79L119.84 11.79L119.84 11.79Q119.46 12.42 118.93 12.91L118.93 12.91L118.93 12.91Q118.48 13.33 117.80 13.67L117.80 13.67L117.80 13.67Q117.12 14.01 116.23 14.01L116.23 14.01L116.23 14.01Q115.58 14.01 115.00 13.79L115.00 13.79L115.00 13.79Q114.41 13.57 113.95 13.15L113.95 13.15L113.95 13.15Q113.50 12.73 113.23 12.12L113.23 12.12L113.23 12.12Q112.97 11.51 112.97 10.75L112.97 10.75L112.97 10.75Q112.97 10.07 113.18 9.54L113.18 9.54L113.18 9.54Q113.40 9.02 113.75 8.62L113.75 8.62L113.75 8.62Q114.10 8.23 114.53 7.97L114.53 7.97L114.53 7.97Q114.97 7.71 115.39 7.55L115.39 7.55L115.39 7.55Q116.73 7 117.22 7L117.22 7L117.22 7Q117.74 7 118.13 7.17L118.13 7.17L118.13 7.17Q118.51 7.35 118.79 7.56L118.79 7.56L118.79 7.56Q119.10 7.81 119.34 8.12L119.34 8.12L114.72 9.98L114.72 9.98Q114.81 10.57 115.00 11.03L115.00 11.03L115.00 11.03Q115.18 11.49 115.53 11.82L115.53 11.82L115.53 11.82Q115.88 12.14 116.44 12.31L116.44 12.31L116.44 12.31Q117.00 12.49 117.88 12.49ZM115.61 7.81L115.61 7.81L115.61 7.81Q115.42 7.81 115.23 7.92L115.23 7.92L115.23 7.92Q115.05 8.02 114.91 8.19L114.91 8.19L114.91 8.19Q114.76 8.36 114.68 8.57L114.68 8.57L114.68 8.57Q114.60 8.78 114.62 8.99L114.62 8.99L114.62 8.99Q114.62 9.21 114.63 9.42L114.63 9.42L114.63 9.42Q114.63 9.63 114.67 9.84L114.67 9.84L117.03 8.76L117.03 8.76Q116.89 8.50 116.68 8.29L116.68 8.29L116.68 8.29Q116.49 8.11 116.23 7.96L116.23 7.96L116.23 7.96Q115.96 7.81 115.61 7.81Z"></path></g><!----><!----></svg>